<?xml version="1.0" encoding="iso-8859-1"?>
<!-- Generator: Adobe Illustrator 21.0.0, SVG Export Plug-In . SVG Version: 6.00 Build 0)  -->
<svg xmlns="http://www.w3.org/2000/svg" xmlns:xlink="http://www.w3.org/1999/xlink" version="1.1" id="Capa_1" x="0px" y="0px" viewBox="0 0 512 512" style="enable-background:new 0 0 512 512;" xml:space="preserve">
<g>
	<path d="M475.348,482H444.81V235.074h-45V482h-30V235.074H141V482h-30V235.074H66V482H36.652c-8.284,0-15,6.716-15,15   c0,8.284,6.716,15,15,15h438.695c8.284,0,15-6.716,15-15C490.348,488.716,483.632,482,475.348,482z M280.146,289.177   c0-8.284,6.716-15,15-15c8.284,0,15,6.716,15,15v10c0,8.284-6.716,15-15,15c-8.284,0-15-6.716-15-15V289.177z M302.837,435.414   c-5.611-8.781-12.436-19.462-17.127-34.996c-2.364,4.185-4.713,8.632-6.922,13.244c-2.353,4.912-7.183,8.163-12.62,8.493   c-5.427,0.339-10.624-2.313-13.554-6.904c-7.339-11.504-17.213-26.981-22.853-51.352c-1.504,2.488-3.025,5.077-4.544,7.751   c-16.816,29.617-25.705,56.214-25.705,76.915c0,18.436,14.999,33.435,33.435,33.435h-53.868   c-6.056-9.713-9.567-21.169-9.567-33.435c0-26.371,10.049-57.381,29.868-92.168c14.38-25.241,28.649-43.054,29.249-43.801   c3.989-4.955,10.671-6.855,16.671-4.742c6.001,2.115,10.014,7.785,10.014,14.147c0,24.4,4.288,41.246,9.86,54.182   c9.488-15.42,17.781-25.785,18.285-26.411c3.988-4.957,10.67-6.855,16.671-4.743c6.001,2.115,10.014,7.785,10.014,14.147   c0,31.961,9.136,46.258,17.971,60.085c7.065,11.058,14.372,22.491,14.372,39.593c0,8.295-1.92,16.146-5.326,23.146h-47.82   c12.763,0,23.146-10.384,23.146-23.146C312.488,450.89,309.179,445.339,302.837,435.414z"/>
	<rect x="66" y="151.063" width="378.809" height="54.012"/>
	<path d="M36.652,121.063h438.695c8.284,0,15-6.716,15-15c0-8.284-6.716-15-15-15H399.81V45c0-24.813-20.187-45-45-45   s-45,20.186-45,45v46.063H201.124V15.002c0-6.067-3.655-11.536-9.26-13.858c-5.606-2.322-12.058-1.039-16.347,3.252L88.96,91.063   H36.652c-8.284,0-15,6.716-15,15C21.652,114.347,28.368,121.063,36.652,121.063z"/>
</g>















</svg>
