<svg xmlns="http://www.w3.org/2000/svg" xmlns:xlink="http://www.w3.org/1999/xlink" width="0" height="0" style="position:absolute">
	
		<symbol id="icon-clock" viewBox="0 0 299 299">
			<path d="M149.995 0C67.156 0 0 67.158 0 149.995s67.156 150 149.995 150 150-67.163 150-150S232.834 0 149.995 0zm64.847 178.524H151.25c-.215 0-.415-.052-.628-.06-.213.01-.412.06-.628.06-5.729 0-10.374-4.645-10.374-10.374V62.249c0-5.729 4.645-10.374 10.374-10.374s10.374 4.645 10.374 10.374v95.527h54.47c5.729 0 10.374 4.645 10.374 10.374 0 5.729-4.641 10.374-10.37 10.374z"></path>
		</symbol>
	
		<symbol id="icon-credit-card" viewBox="0 0 512 512">
			<path d="M498.409 175.706L336.283 13.582C327.531 4.831 315.86.011 303.418.011c-12.441 0-24.113 4.818-32.865 13.569L13.571 270.563C4.82 279.315 0 290.985 0 303.427c0 12.442 4.82 24.114 13.571 32.864l19.992 19.992.005.005.006.006 134.36 134.36H149.33c-5.89 0-10.666 4.775-10.666 10.666 0 5.89 4.776 10.666 10.666 10.666h59.189l.041.001.041-.001 154.053.002c5.89 0 10.666-4.776 10.666-10.666 0-5.891-4.776-10.666-10.666-10.666l-113.464-.002 249.22-249.22c18.12-18.122 18.12-47.608-.001-65.728zm-15.084 50.644L226.341 483.334c-4.713 4.712-11.013 7.31-17.742 7.32h-.081c-6.727-.011-13.025-2.608-17.736-7.32L56.195 348.746 302.99 101.949c4.165-4.165 4.165-10.919 0-15.084-4.166-4.165-10.918-4.165-15.085.001L41.11 333.663l-12.456-12.456c-4.721-4.721-7.321-11.035-7.321-17.779s2.6-13.059 7.322-17.781L285.637 28.665c4.722-4.721 11.037-7.321 17.781-7.321 6.744 0 13.059 2.6 17.781 7.322l57.703 57.702-246.798 246.8c-4.165 4.164-4.165 10.918 0 15.085a10.636 10.636 0 0 0 7.542 3.123c2.729 0 5.459-1.042 7.542-3.124l246.798-246.799 89.339 89.336c9.803 9.804 9.802 25.757 0 35.561z"></path><path d="M262.801 308.064c-4.165-4.165-10.917-4.164-15.085 0l-83.934 83.933c-4.165 4.165-4.165 10.918 0 15.085a10.633 10.633 0 0 0 7.542 3.124c2.729 0 5.459-1.042 7.542-3.124l83.934-83.933c4.166-4.167 4.166-10.92.001-15.085zm-34.426 79.677l-34.425 34.425c-4.165 4.165-4.165 10.919 0 15.085a10.637 10.637 0 0 0 7.542 3.124c2.731 0 5.459-1.042 7.542-3.124l34.425-34.425c4.165-4.165 4.165-10.919 0-15.085s-10.916-4.166-15.084 0zm31.679-31.676l-4.525 4.524c-4.166 4.165-4.166 10.918-.001 15.085a10.632 10.632 0 0 0 7.542 3.125 10.63 10.63 0 0 0 7.541-3.125l4.525-4.524c4.166-4.165 4.166-10.918.001-15.084-4.163-4.165-10.918-4.166-15.083-.001zm147.019-192.272a10.666 10.666 0 0 0-15.084 0l-45.255 45.254a10.668 10.668 0 0 0 0 15.084l30.17 30.167a10.633 10.633 0 0 0 7.542 3.124c2.731 0 5.459-1.042 7.542-3.124l45.253-45.252c4.165-4.165 4.165-10.919 0-15.084l-30.168-30.169zm-22.628 67.88l-15.085-15.084 30.17-30.169 15.084 15.085-30.169 30.168zM320.339 80.186c2.731 0 5.461-1.042 7.543-3.126l4.525-4.527c4.164-4.166 4.163-10.92-.003-15.084-4.165-4.164-10.92-4.163-15.084.003l-4.525 4.527c-4.164 4.166-4.163 10.92.003 15.084a10.628 10.628 0 0 0 7.541 3.123zM107.215 358.057l-4.525 4.525c-4.165 4.164-4.165 10.918 0 15.085 2.083 2.082 4.813 3.123 7.542 3.123s5.459-1.041 7.542-3.123l4.525-4.525c4.165-4.166 4.165-10.92 0-15.085-4.166-4.166-10.918-4.166-15.084 0z"></path>
		</symbol>
	
		<symbol id="icon-delivery-truck" viewBox="0 0 612 612">
			<path d="M21.474 377.522V117.138c0-14.469 11.729-26.199 26.199-26.199h260.25c14.469 0 26.198 11.73 26.198 26.199v260.385a8.732 8.732 0 0 1-8.733 8.733H30.207a8.733 8.733 0 0 1-8.733-8.734zm210.16 89.202c0 30.01-24.329 54.338-54.338 54.338s-54.338-24.328-54.338-54.338c0-30.011 24.329-54.338 54.338-54.338s54.338 24.327 54.338 54.338zm-27.17 0c0-15.005-12.164-27.169-27.169-27.169s-27.17 12.164-27.17 27.169 12.165 27.17 27.17 27.17 27.169-12.165 27.169-27.17zm-73.969-54.339H8.733A8.733 8.733 0 0 0 0 421.118v26.495a8.733 8.733 0 0 0 8.733 8.733h97.598c2.548-17.484 11.373-32.928 24.164-43.961zm385.443 54.339c0 30.01-24.329 54.338-54.338 54.338-30.01 0-54.338-24.328-54.338-54.338 0-30.011 24.328-54.338 54.338-54.338 30.009-.001 54.338 24.327 54.338 54.338zm-27.168 0c0-15.005-12.165-27.169-27.17-27.169-15.006 0-27.169 12.164-27.169 27.169s12.164 27.17 27.169 27.17 27.17-12.165 27.17-27.17zM612 421.118v26.495a8.733 8.733 0 0 1-8.733 8.733h-70.704c-5.057-34.683-34.906-61.427-70.961-61.427-36.062 0-65.912 26.745-70.969 61.427H248.261c-2.549-17.483-11.373-32.928-24.164-43.961h134.994V162.594c0-9.646 7.82-17.466 17.466-17.466h82.445a69.86 69.86 0 0 1 57.9 30.77l53.15 78.721a69.865 69.865 0 0 1 11.962 39.094v118.672h21.253a8.733 8.733 0 0 1 8.733 8.733zm-88.592-164.483l-42.501-60.393a8.734 8.734 0 0 0-7.142-3.707H407.47a8.734 8.734 0 0 0-8.733 8.733v60.393a8.732 8.732 0 0 0 8.733 8.733h108.798c7.074 0 11.212-7.973 7.14-13.759z"></path>
		</symbol>
	
		<symbol id="icon-down-arrow" viewBox="0 0 129 129">
			<path d="M121.3 34.6c-1.6-1.6-4.2-1.6-5.8 0l-51 51.1-51.1-51.1c-1.6-1.6-4.2-1.6-5.8 0-1.6 1.6-1.6 4.2 0 5.8l53.9 53.9c.8.8 1.8 1.2 2.9 1.2 1 0 2.1-.4 2.9-1.2l53.9-53.9c1.7-1.6 1.7-4.2.1-5.8z"></path>
		</symbol>
	
		<symbol id="icon-fire" viewBox="-22 0 134 134.06">
			<path d="M23.348 134.059C8.445 84.953 39.934 67.023 39.934 67.023 37.73 93.227 52.62 113.641 52.62 113.641c5.477-1.653 15.93-9.375 15.93-9.375 0 9.375-5.516 29.78-5.516 29.78s19.309-14.929 25.387-39.726c6.07-24.797-11.563-49.691-11.563-49.691a66.494 66.494 0 0 1-16.507 48 9.514 9.514 0 0 0 1.445-2.227c2.09-4.18 5.445-15.043 3.48-40.199C62.512 14.891 30.516 0 30.516 0c2.757 21.516-5.512 26.473-24.883 67.313-19.371 40.832 17.715 66.746 17.715 66.746zm0 0"></path>
		</symbol>
	
		<symbol id="icon-fire-2" viewBox="0 0 533.333 533.333">
			<path d="M165.494 533.333c-35.545-73.962-16.616-116.343 10.703-156.272 29.917-43.728 37.627-87.013 37.627-87.013s23.518 30.573 14.11 78.39c41.548-46.25 49.389-119.938 43.115-148.159 93.914 65.63 134.051 207.737 79.96 313.054 287.695-162.776 71.562-406.339 33.934-433.775 12.543 27.435 14.922 73.88-10.416 96.42C331.635 33.333 225.583 0 225.583 0c12.543 83.877-45.466 175.596-101.404 244.13-1.965-33.446-4.053-56.525-21.641-88.531-3.948 60.758-50.381 110.285-62.955 171.161-17.032 82.44 12.758 142.802 125.911 206.573z"></path>
		</symbol>
	
		<symbol id="icon-fireplace" viewBox="0 0 512 512">
			<path d="M475.348 482H444.81V235.074h-45V482h-30V235.074H141V482h-30V235.074H66V482H36.652c-8.284 0-15 6.716-15 15 0 8.284 6.716 15 15 15h438.695c8.284 0 15-6.716 15-15 .001-8.284-6.715-15-14.999-15zM280.146 289.177c0-8.284 6.716-15 15-15 8.284 0 15 6.716 15 15v10c0 8.284-6.716 15-15 15-8.284 0-15-6.716-15-15v-10zm22.691 146.237c-5.611-8.781-12.436-19.462-17.127-34.996a222.113 222.113 0 0 0-6.922 13.244 15 15 0 0 1-12.62 8.493 14.992 14.992 0 0 1-13.554-6.904c-7.339-11.504-17.213-26.981-22.853-51.352a331.63 331.63 0 0 0-4.544 7.751c-16.816 29.617-25.705 56.214-25.705 76.915 0 18.436 14.999 33.435 33.435 33.435h-53.868a62.994 62.994 0 0 1-9.567-33.435c0-26.371 10.049-57.381 29.868-92.168 14.38-25.241 28.649-43.054 29.249-43.801a15 15 0 1 1 26.685 9.405c0 24.4 4.288 41.246 9.86 54.182 9.488-15.42 17.781-25.785 18.285-26.411a15 15 0 0 1 26.685 9.404c0 31.961 9.136 46.258 17.971 60.085 7.065 11.058 14.372 22.491 14.372 39.593 0 8.295-1.92 16.146-5.326 23.146h-47.82c12.763 0 23.146-10.384 23.146-23.146.001-7.964-3.308-13.515-9.65-23.44zM66 151.063h378.809v54.012H66zm-29.348-30h438.695c8.284 0 15-6.716 15-15 0-8.284-6.716-15-15-15H399.81V45c0-24.813-20.187-45-45-45s-45 20.186-45 45v46.063H201.124V15.002a15 15 0 0 0-25.607-10.606L88.96 91.063H36.652c-8.284 0-15 6.716-15 15 0 8.284 6.716 15 15 15z"></path>
		</symbol>
	
		<symbol id="icon-gift" viewBox="0 0 512 512">
			<path d="M480 143.686H378.752c7.264-4.96 13.504-9.888 17.856-14.304 25.792-25.952 25.792-68.192 0-94.144-25.056-25.216-68.768-25.248-93.856 0-13.856 13.92-50.688 70.592-45.6 108.448h-2.304c5.056-37.856-31.744-94.528-45.6-108.448-25.088-25.248-68.8-25.216-93.856 0C89.6 61.19 89.6 103.43 115.36 129.382c4.384 4.416 10.624 9.344 17.888 14.304H32c-17.632 0-32 14.368-32 32v80c0 8.832 7.168 16 16 16h16v192c0 17.632 14.368 32 32 32h384c17.632 0 32-14.368 32-32v-192h16c8.832 0 16-7.168 16-16v-80c0-17.632-14.368-32-32-32zM138.08 57.798c6.496-6.528 15.104-10.112 24.256-10.112 9.12 0 17.728 3.584 24.224 10.112 21.568 21.696 43.008 77.12 35.552 84.832 0 0-1.344 1.056-5.92 1.056-22.112 0-64.32-22.976-78.112-36.864-13.408-13.504-13.408-35.52 0-49.024zM240 463.686H64v-192h176v192zm0-224H32v-64h208v64zm85.44-181.888c12.992-13.024 35.52-12.992 48.48 0 13.408 13.504 13.408 35.52 0 49.024-13.792 13.888-56 36.864-78.112 36.864-4.576 0-5.92-1.024-5.952-1.056-7.424-7.712 14.016-63.136 35.584-84.832zM448 463.686H272v-192h176v192zm32-224H272v-64h208v64z"></path>
		</symbol>
	
		<symbol id="icon-hourglass" viewBox="0 0 47.001 47.001">
			<path d="M22.432 22.429a1.067 1.067 0 1 0 2.136 0 5.321 5.321 0 0 1 1.251-3.421c1.793-2.126 3.137-4.431 3.988-6.851a1.069 1.069 0 0 0-1.007-1.423H18.199a1.069 1.069 0 0 0-1.008 1.423c.853 2.42 2.195 4.725 3.988 6.851a5.32 5.32 0 0 1 1.253 3.421zm2.136 4.281a1.068 1.068 0 0 0-2.136 0c-.001 1.542-.922 3.067-2.593 4.304-3.574 2.639-6.249 5.506-7.951 8.52a1.06 1.06 0 0 0 .009 1.062c.19.329.542.53.922.53h21.364a1.067 1.067 0 0 0 .93-1.592c-1.701-3.014-4.377-5.881-7.95-8.52-1.673-1.237-2.594-2.762-2.595-4.304z"></path><path d="M42.192 42.729h-.639c-.734-8.313-5.602-14.695-9.386-19.228 3.785-4.532 8.651-10.915 9.388-19.228h.639a2.136 2.136 0 0 0 0-4.273H4.807a2.136 2.136 0 0 0 0 4.273h.639c.735 8.314 5.601 14.697 9.386 19.228-3.784 4.532-8.651 10.914-9.387 19.228h-.638a2.137 2.137 0 0 0 0 4.273h37.387a2.137 2.137 0 1 0-.002-4.273zm-32.464 0c.803-7.511 5.686-13.295 9.335-17.617l.195-.231a2.134 2.134 0 0 0 0-2.755l-.194-.23c-3.648-4.323-8.533-10.107-9.336-17.619h27.544c-.803 7.512-5.688 13.296-9.336 17.619l-.193.23a2.134 2.134 0 0 0 0 2.755l.195.231c3.648 4.322 8.531 10.106 9.334 17.617H9.728z"></path>
		</symbol>
	
		<symbol id="icon-magic" viewBox="0 0 464.731 464.731">
			<path d="M463.056 441.971l-45.894-43.145 29.759-55.521c.8-1.508.379-3.398-1.029-4.395a3.401 3.401 0 0 0-4.487.424l-43.146 45.895-55.533-29.746c-1.515-.803-3.399-.377-4.395 1.027-1.017 1.392-.815 3.309.438 4.488l45.911 43.162-29.747 55.518a3.442 3.442 0 0 0 1.01 4.412 3.439 3.439 0 0 0 4.502-.438l43.149-45.912 55.507 29.746a3.42 3.42 0 0 0 4.393-1.027 3.406 3.406 0 0 0-.438-4.488zm-93.97-347.33l-20.273 37.826c-1.04 1.918-.479 4.307 1.285 5.588a4.357 4.357 0 0 0 5.71-.559l29.417-31.269 37.78 20.26c1.921 1.024 4.323.484 5.589-1.285 1.271-1.783 1.048-4.215-.555-5.709l-31.245-29.385 20.274-37.814c1.028-1.918.466-4.307-1.297-5.59-1.766-1.268-4.216-1.025-5.713.558l-29.381 31.257-37.814-20.273a4.359 4.359 0 0 0-5.045 7.012l31.268 29.383zM123.956 360.06l-44.659 6.239-17.611-41.484a4.589 4.589 0 0 0-5.423-2.631 4.586 4.586 0 0 0-3.313 5.051l6.239 44.639-41.499 17.615c-2.1.908-3.23 3.217-2.614 5.424a4.558 4.558 0 0 0 5.032 3.31l44.657-6.241 17.611 41.5a4.573 4.573 0 0 0 5.425 2.629 4.586 4.586 0 0 0 3.312-5.043l-6.238-44.658 41.5-17.617c2.099-.904 3.234-3.217 2.612-5.423a4.554 4.554 0 0 0-5.031-3.31zM4.908 45.161l34.646 9.537-.23 35.832a3.996 3.996 0 0 0 3.447 3.99 3.98 3.98 0 0 0 4.377-2.901l9.521-34.565 35.923.225a3.996 3.996 0 0 0 3.992-3.441 3.985 3.985 0 0 0-2.905-4.383l-34.627-9.547.213-35.881c.018-2.01-1.466-3.701-3.441-3.988a3.977 3.977 0 0 0-4.383 2.901l-9.533 34.608-35.912-.224c-1.991 0-3.701 1.463-3.974 3.441a4.002 4.002 0 0 0 2.886 4.396zm273.111 189.358l139.775-18.477a3.172 3.172 0 0 0 2.762-3.143 3.174 3.174 0 0 0-2.762-3.142L278.019 191.28l20.476-57.755a6.75 6.75 0 0 0-1.603-7.009c-1.828-1.844-4.567-2.445-7.01-1.586l-57.697 20.484L213.708 5.688a3.158 3.158 0 0 0-3.14-2.764 3.178 3.178 0 0 0-3.146 2.764l-18.457 139.744-57.772-20.502a6.706 6.706 0 0 0-7.014 1.586 6.705 6.705 0 0 0-1.586 7.009l20.489 57.772-139.73 18.46a3.176 3.176 0 0 0-2.762 3.142 3.173 3.173 0 0 0 2.762 3.143l139.73 18.461-20.489 57.742a6.707 6.707 0 0 0 1.586 7.01 6.698 6.698 0 0 0 7.014 1.582l57.772-20.467 18.457 139.743a3.184 3.184 0 0 0 3.146 2.764 3.163 3.163 0 0 0 3.14-2.764l18.477-139.743 57.727 20.486a6.696 6.696 0 0 0 7.009-1.589 6.685 6.685 0 0 0 1.584-7.007l-20.486-57.741z"></path>
		</symbol>
	
		<symbol id="icon-match-on-fire" viewBox="0 0 25.953 25.953">
			<path d="M6.953.445C5.178 1.437 0 6.42 0 15.02c0 2.961 1.391 7.8 4.984 10.487-.393-.471-4.069-8.257-.586-14.132 1.518 6.439 4.261 2.668 2.437-3.181 2.243 1.906 3.825 6.479.827 10.199 1.938-.73 4.291-1.858 4.291-5.501s-4.535-9.799-5-12.447zm1 22.241l17-9.241"></path><ellipse cx="8.313" cy="22.447" rx="2.448" ry="1.808"></ellipse>
		</symbol>
	
		<symbol id="icon-mobileme-logo-of-black-cloud" viewBox="0 0 430.117 430.117">
			<path d="M430.117 275.749c0 46.983-37.812 85.071-84.437 85.071H84.422C37.798 360.82 0 322.732 0 275.749c0-42.433 30.826-77.585 71.156-84.017a54.264 54.264 0 0 1-.793-9.196c0-29.769 23.952-53.898 53.506-53.898 13.18 0 25.258 4.802 34.576 12.792 16.612-37.715 37.908-72.134 97.652-72.134 72.456 0 106.797 56.303 106.797 115.715 0 2.485-.104 4.947-.271 7.383 38.512 7.907 67.494 42.219 67.494 83.355z"></path>
		</symbol>
	
		<symbol id="icon-start-up" viewBox="0 0 512 512">
			<path d="M74.742 328.078a15.016 15.016 0 0 0 2.797 17.34l3.668 3.668c10.598-12.559 22.95-26.188 37.93-41.164 1.058-1.059 2.148-1.57 3.21-2.547L98.75 281.773c-13.719 24.813-21.719 41.766-24.008 46.305zm129.246 64.695c-15.015 15.016-28.61 27.391-41.097 37.997l4.968 4.968a14.993 14.993 0 0 0 17.465 2.735c7.77-4.004 19.988-9.754 45.926-24.2l-24.71-24.71c-.977 1.066-1.49 2.152-2.552 3.21zm-7.996-76.835c-10.84-10.84-41.324-1.122-55.644 13.195-47.907 47.906-69.543 81.87-79.258 101.926a14.992 14.992 0 0 0 2.89 17.14 15.01 15.01 0 0 0 17.165 2.89c19.605-9.519 53.156-31.054 101.632-79.527 15.746-15.753 23.516-45.32 13.227-55.613zM46.82 199.71L4.395 242.138a14.997 14.997 0 0 0-2.383 18.105c3.316 5.805 10.261 8.762 16.87 6.992 22.93-6.148 43.106-8.746 56.692-5.261 19.328-34.364 40.098-65.996 62.094-94.73-12.723-8.157-54.766-3.614-90.848 32.468zm207.075 310.68a14.971 14.971 0 0 0 17.347-2.785l42.43-42.425c32.848-32.856 38.629-75.246 31.176-88.688-32.047 24.153-64.512 44.547-94.801 61.621 2.09 11.801.7 23.25-4.242 56.688a14.968 14.968 0 0 0 8.09 15.59zM297.8 150.469c-17.542 17.547-17.542 46.09 0 63.636 17.548 17.547 46.095 17.547 63.641 0s17.547-46.09 0-63.636-46.093-17.547-63.64 0zM511.117 14.633c-.539-7.418-6.445-13.281-13.84-13.836-36.84-2.774-73.535 1.758-109.504 12.758 2.707 24.71 15.489 51.453 37.309 73.273 22.082 22.078 49.55 34.856 74.703 37.246 9.688-33.949 14.281-70.308 11.332-109.441zm0 0"></path><path d="M403.871 108.043c-24.96-24.961-40.203-54.898-45.094-84.047-90.074 36.942-176.3 117.613-244.437 230.941l33.851 33.852c23.13-9.39 51.207-11.871 69.016 5.934 17.832 17.836 15.305 45.902 5.918 69l34.965 34.965c87.195-52.551 188.71-135.344 231.879-245.497-29.86-4.511-60.73-19.78-86.098-45.148zM382.652 235.32c-29.238 29.239-76.82 29.239-106.062 0-29.242-29.242-29.242-76.828 0-106.066s76.824-29.238 106.062 0c29.243 29.242 29.243 76.824 0 106.066zm0 0"></path>
		</symbol>
	
		<symbol id="icon-tag" viewBox="0 0 486.982 486.982">
			<path d="M131.35 422.969c14.6 14.6 38.3 14.6 52.9 0l181.1-181.1c5.2-5.2 9.2-11.4 11.8-18 18.2 5.1 35.9 7.8 51.5 7.7 38.6-.2 51.4-17.1 55.6-27.2 4.2-10 7.2-31-19.9-58.6l-.9-.9c-16.8-16.8-41.2-32.3-68.9-43.8-5.1-2.1-10.2-4-15.2-5.8v-.3c-.3-22.2-18.2-40.1-40.4-40.4l-108.5-1.5c-14.4-.2-28.2 5.4-38.3 15.6l-181.2 181.1c-14.6 14.6-14.6 38.3 0 52.9l120.4 120.3zm139.6-305.1c12.1-12.1 31.7-12.1 43.8 0 7.2 7.2 10.1 17.1 8.7 26.4 11.9 8.4 26.1 16.2 41.3 22.5 5.4 2.2 10.6 4.2 15.6 5.9l-.6-43.6c.9.4 1.7.7 2.6 1.1 23.7 9.9 45 23.3 58.7 37l.6.6c13 13.3 14.4 21.8 13.3 24.4-3.4 8.1-39.9 15.3-95.3-7.8-16.2-6.8-31.4-15.2-43.7-24.3-.4.5-.9 1-1.3 1.5-12.1 12.1-31.7 12.1-43.8 0-12-12-12-31.6.1-43.7z"></path>
		</symbol>
	
		<symbol id="icon-wind" viewBox="0 0 368 368">
			<path d="M296 48c-39.704 0-72 32.304-72 72 0 4.416 3.576 8 8 8s8-3.584 8-8c0-30.88 25.128-56 56-56s56 25.12 56 56-25.128 56-56 56H8c-4.416 0-8 3.584-8 8s3.584 8 8 8h288c39.704 0 72-32.304 72-72s-32.296-72-72-72z"></path><path d="M144 32c-30.88 0-56 25.12-56 56 0 4.416 3.584 8 8 8s8-3.584 8-8c0-22.056 17.944-40 40-40s40 17.944 40 40-17.944 40-40 40H8c-4.416 0-8 3.584-8 8s3.584 8 8 8h136c30.88 0 56-25.12 56-56s-25.12-56-56-56zm136 192H8c-4.416 0-8 3.584-8 8s3.584 8 8 8h272c22.056 0 40 17.944 40 40s-17.944 40-40 40-40-17.944-40-40c0-4.416-3.576-8-8-8s-8 3.584-8 8c0 30.88 25.128 56 56 56s56-25.12 56-56-25.128-56-56-56z"></path>
		</symbol>
	
</svg>
